<svg width="137" height="135" viewBox="0 0 137 135" fill="none" xmlns="http://www.w3.org/2000/svg">
<path d="M67.513 1.05459C67.6954 -0.0642238 69.3046 -0.0642281 69.487 1.05459L75.3347 36.9273C75.4764 37.7966 76.5913 38.0714 77.1208 37.3675L98.9695 8.32139C99.6509 7.41548 101.076 8.1633 100.717 9.23872L89.2244 43.72C88.9459 44.5555 89.8054 45.317 90.6013 44.9398L123.446 29.3744C124.47 28.8889 125.384 30.2132 124.567 30.9989L98.3664 56.1895C97.7315 56.7999 98.1387 57.8736 99.0187 57.9095L135.335 59.3906C136.467 59.4368 136.661 61.0342 135.573 61.3501L100.666 71.4792C99.8205 71.7246 99.6821 72.8646 100.445 73.3053L131.913 91.4936C132.894 92.0609 132.323 93.5655 131.213 93.3393L95.5974 86.0864C94.7344 85.9106 94.082 86.8557 94.5524 87.6003L113.963 118.329C114.569 119.288 113.364 120.355 112.486 119.638L84.3208 96.6648C83.6383 96.108 82.6215 96.6417 82.6919 97.5197L85.599 133.749C85.6897 134.879 84.1273 135.264 83.6824 134.222L69.4198 100.791C69.0742 99.9808 67.9258 99.9808 67.5802 100.791L53.3176 134.222C52.8727 135.264 51.3103 134.879 51.401 133.749L54.3081 97.5197C54.3785 96.6417 53.3617 96.108 52.6792 96.6648L24.5142 119.638C23.6357 120.355 22.4313 119.288 23.0367 118.329L42.4476 87.6003C42.918 86.8557 42.2656 85.9106 41.4026 86.0864L5.78743 93.3393C4.67665 93.5655 4.10602 92.0609 5.08746 91.4936L36.5554 73.3053C37.3179 72.8646 37.1795 71.7246 36.3336 71.4792L1.42738 61.3501C0.338702 61.0342 0.532664 59.4368 1.66531 59.3906L37.9813 57.9095C38.8613 57.8736 39.2685 56.7999 38.6336 56.1895L12.4329 30.9989C11.6157 30.2132 12.5298 28.8889 13.5542 29.3744L46.3987 44.9398C47.1946 45.317 48.0541 44.5555 47.7756 43.72L36.2826 9.23873C35.9242 8.16331 37.349 7.41548 38.0305 8.32138L59.8792 37.3675C60.4087 38.0714 61.5236 37.7966 61.6653 36.9273L67.513 1.05459Z" fill="#FBDAB4"/>
</svg>
